<?xml version="1.0" standalone="no"?>
<!DOCTYPE svg PUBLIC "-//W3C//DTD SVG 20010904//EN"
 "http://www.w3.org/TR/2001/REC-SVG-20010904/DTD/svg10.dtd">
<svg version="1.0" xmlns="http://www.w3.org/2000/svg"
 width="512.000000pt" height="512.000000pt" viewBox="0 0 512.000000 512.000000"
 preserveAspectRatio="xMidYMid meet">

<g transform="translate(0.000000,512.000000) scale(0.100000,-0.100000)"
fill="#000000" stroke="none">
<path d="M2432 4595 c-169 -57 -414 -191 -588 -321 -93 -70 -212 -196 -257
-272 -51 -87 -83 -184 -97 -292 l-12 -95 -53 0 c-43 0 -61 -6 -96 -30 -76 -54
-123 -173 -105 -270 9 -48 66 -110 122 -131 34 -13 43 -21 39 -33 -4 -9 -13
-45 -21 -81 -39 -183 8 -370 154 -608 36 -59 80 -132 98 -162 45 -75 68 -168
61 -247 -8 -81 -26 -142 -102 -343 -80 -211 -129 -364 -221 -682 -112 -393
-168 -675 -181 -911 l-6 -117 39 0 40 0 12 148 c22 259 66 475 177 862 93 324
130 439 220 680 89 238 110 325 102 429 -7 103 -32 163 -134 327 -145 232
-202 395 -189 537 3 39 26 129 51 206 58 180 63 205 76 384 12 180 29 258 76
348 91 176 290 341 608 504 226 116 519 141 847 75 185 -38 291 -93 446 -229
182 -161 235 -270 282 -581 11 -74 38 -209 61 -300 70 -283 65 -488 -20 -705
-17 -44 -58 -123 -92 -175 -125 -193 -149 -279 -111 -415 11 -38 94 -254 185
-480 160 -399 200 -510 232 -646 29 -128 106 -696 112 -832 l6 -137 40 0 40 0
-6 148 c-8 191 -85 721 -131 905 -26 104 -79 248 -214 585 -99 246 -185 473
-192 505 -20 96 -3 150 94 301 95 146 138 249 171 411 18 88 22 289 7 367 l-9
48 44 25 c143 84 160 303 31 398 -19 14 -50 22 -100 26 l-71 6 -19 108 c-30
184 -85 291 -218 430 -153 161 -300 254 -465 296 -151 39 -259 53 -426 56 -92
2 -182 6 -200 9 -24 5 -63 -4 -137 -29z"/>
<path d="M3038 3837 c-54 -43 -80 -193 -42 -244 46 -63 185 -113 312 -113 85
0 124 16 148 62 49 95 -38 215 -204 279 -70 27 -189 36 -214 16z m72 -121 c0
-8 -4 -17 -8 -20 -13 -8 -35 11 -28 23 10 16 36 14 36 -3z"/>
<path d="M2112 3731 c-52 -25 -139 -110 -176 -174 -56 -95 -54 -176 5 -232 28
-28 36 -30 102 -29 95 1 171 30 241 95 68 62 96 117 96 188 0 70 -26 113 -87
142 -64 31 -128 34 -181 10z m68 -126 c0 -8 -7 -15 -15 -15 -8 0 -15 7 -15 15
0 8 7 15 15 15 8 0 15 -7 15 -15z"/>
<path d="M2750 3490 c-14 -4 -40 -8 -57 -9 -71 -2 -95 -71 -43 -123 26 -26 36
-29 63 -23 18 3 54 7 80 8 40 2 53 7 73 30 49 57 19 128 -53 126 -21 -1 -49
-5 -63 -9z"/>
<path d="M2721 3214 c-19 -8 -53 -32 -76 -53 -57 -53 -99 -73 -165 -80 -44 -5
-56 -10 -58 -25 -10 -49 81 -61 167 -21 29 14 75 45 102 69 66 59 93 64 173
32 97 -39 174 -30 164 20 -2 15 -15 20 -53 25 -28 4 -72 16 -98 28 -57 24
-108 26 -156 5z"/>
<path d="M3317 1562 c-8 -9 -21 -37 -27 -62 -20 -73 -36 -97 -151 -216 -117
-120 -159 -191 -190 -314 -20 -79 -16 -317 5 -359 35 -67 99 -80 182 -38 54
27 83 53 156 139 41 49 59 61 150 99 113 48 171 92 199 154 23 49 23 59 3 79
-21 22 -49 6 -74 -43 -27 -54 -56 -74 -168 -117 -99 -39 -138 -69 -229 -178
-30 -36 -36 -38 -70 -33 -23 4 -47 17 -60 32 -20 23 -23 37 -23 112 0 173 41
264 185 414 103 106 143 166 164 246 18 67 -17 124 -52 85z"/>
<path d="M2110 1445 c-22 -27 -8 -125 30 -201 35 -71 108 -151 270 -295 87
-77 135 -151 151 -232 11 -53 10 -61 -8 -85 -24 -32 -61 -47 -94 -39 -13 4
-60 38 -103 77 -72 63 -88 73 -165 96 -121 36 -165 58 -221 110 -37 35 -54 44
-69 39 -38 -12 -27 -55 27 -107 56 -54 98 -77 212 -112 47 -14 97 -34 112 -44
43 -28 146 -131 153 -151 14 -46 131 -62 183 -25 46 34 65 86 63 176 -2 93
-26 167 -82 248 -41 60 -75 94 -190 190 -42 34 -93 84 -112 109 -40 52 -87
146 -87 174 0 30 -28 87 -43 87 -8 0 -20 -7 -27 -15z"/>
</g>
</svg>
